<?xml version="1.0" standalone="no"?>
<!DOCTYPE svg PUBLIC "-//W3C//DTD SVG 1.1//EN" "http://www.w3.org/Graphics/SVG/1.1/DTD/svg11.dtd" >
<svg xmlns="http://www.w3.org/2000/svg">
<metadata></metadata>
<defs>
<font id="alpine_scriptmedium" horiz-adv-x="755" >
<font-face units-per-em="2048" ascent="1638" descent="-410" />
<missing-glyph horiz-adv-x="839" />
<glyph horiz-adv-x="2048" />
<glyph horiz-adv-x="2048" />
<glyph unicode="&#xd;" horiz-adv-x="681" />
<glyph unicode=" "  horiz-adv-x="839" />
<glyph unicode="&#x09;" horiz-adv-x="839" />
<glyph unicode="&#xa0;" horiz-adv-x="839" />
<glyph unicode="!" horiz-adv-x="202" d="M20.5 800.5q-0.5 196.5 10.5 413.5q10 213 12 328q0 94 -2 117l-6 16q-6 29 9 54.5t44 31.5t53.5 -9t32.5 -42l4 -18q6 -29 6 -152q-2 -117 -12 -334q-10 -213 -10 -406.5t2 -281.5l4 -90q2 -29 -18.5 -50.5t-49 -22.5t-50 19.5t-23.5 49.5l-2 90q-4 90 -4.5 286.5z M25 132q0 30 20.5 50.5t49 20.5t48.5 -21l7 -6q20 -20 20 -50t-20.5 -50.5t-49 -20.5t-49.5 21l-6 6q-20 20 -20 50z" />
<glyph unicode="&#x22;" horiz-adv-x="370" d="M20 1313q0 135 3 164v26q2 29 24.5 48.5t51 18.5t48 -23.5t17.5 -51.5l-2 -27v-153q2 -131 4 -176l2 -47q2 -29 -18.5 -50.5t-49 -23.5t-50 18.5t-23.5 48.5l-2 48q-2 47 -5 180zM193 1384q-6 76 0 101l4 14q8 29 33.5 43t53 7t43 -33.5t7.5 -53.5l-4 -10q0 -16 4 -57 q4 -61 10 -156l8 -94q2 -29 -17.5 -51.5t-48 -24.5t-51 17.5t-24.5 48.5l-6 94q-8 92 -12 155z" />
<glyph unicode="#" horiz-adv-x="1232" d="M24.5 698.5q-10.5 26.5 2 54t41.5 38.5l192 69q55 20 117 41q-8 37 -15 74l-51 264q-4 29 12.5 53.5t44 29.5t52 -11.5t31.5 -44.5l51 -265q4 -29 10 -55q98 29 209 60q10 4 33 10q-18 188 -39 282l-25 125q-4 29 12.5 53.5t44 29.5t52 -11t30.5 -45l25 -123 q20 -96 39 -272q113 31 149 39q57 14 72 18l14 2q27 6 52.5 -9t32 -44t-10 -53.5t-45.5 -30.5l-12 -2q-12 -4 -70 -19q-37 -8 -170 -45q8 -98 15 -184q55 23 79 33l52 20q27 12 54.5 0t38.5 -38.5t0 -53t-40 -39.5l-51 -20q-31 -12 -125 -51q2 -53 4 -103l2 -180 q0 -29 -20.5 -50.5t-49 -21.5t-50 20.5t-21.5 49.5l-2 180q0 25 -3 49l-8 -4q-82 -33 -157 -63q47 -182 59 -248l14 -72q6 -27 -10 -51.5t-45 -30.5t-53.5 10.5t-30.5 45.5l-14 71q-10 55 -51 221q-53 -23 -105 -45l-172 -73q-27 -10 -54.5 0t-38.5 36.5t0 54t38 38.5 l172 75q59 25 125 52q-27 109 -51 223q-51 -16 -97 -35l-194 -70q-27 -10 -53.5 2.5t-37 39zM541 807q23 -111 47 -213q68 27 139 55q29 12 55 23q-6 91 -14 200q-4 0 -10 -2q-115 -33 -217 -63z" />
<glyph unicode="&#x26;" horiz-adv-x="878" d="M24.5 939q-12.5 73 18.5 146q61 133 227 197q172 66 344 -51q63 -41 105 -68q2 63 -2 172q-6 156 -8 193l-4 39q-2 29 16 51t48 25.5t52.5 -16t24.5 -48.5l2 -39q4 -41 10 -201q4 -162 -2 -227q-2 -23 -6 -39q-10 -35 -44 -60.5t-77 -13t-194 114.5q-111 76 -216 37 q-111 -43 -147 -125q-16 -35 -11 -63.5t34 -61.5q55 -59 129 -65q14 -2 28 -2q12 2 25 2q2 2 8 4q23 12 34 19t31.5 15.5t35 11.5t33 3t36.5 -4q4 -2 9 -4t21.5 -10.5t23.5 -19.5t14.5 -30.5t-5.5 -42.5q-6 -14 -12 -23.5t-15 -15.5l-13.5 -9t-14.5 -6l-10 -3 q-45 -19 -135 -25q-10 -8 -21 -12q-14 -10 -26 -18q-84 -63 -97 -140q-8 -39 5.5 -66.5t54.5 -53.5q25 -23 66.5 -14t101.5 63q131 117 155 178v10t4.5 20.5t12.5 25.5t27.5 18.5t48.5 5.5q33 -2 52 -17.5t22 -34t0 -36t-7 -29.5l-6 -12q-12 -88 -16 -301q-4 -215 0 -289 l4 -76q0 -29 -19.5 -50.5t-48.5 -22.5t-51.5 18.5t-22.5 48.5l-4 76q-4 78 0 297q2 66 4 121q-29 -29 -61 -58q-84 -76 -169 -93t-171 34q-72 47 -103.5 115.5t-17.5 146.5q14 90 84 166q-74 29 -129 90q-53 59 -65.5 132z" />
<glyph unicode="'" horiz-adv-x="262" d="M20 887l3 24q2 29 34 191q29 160 37 205l8 47q6 29 31 45t52.5 11t45 -28.5t11.5 -52.5l-9 -47q-8 -47 -38 -207q-29 -154 -31 -176l-2 -25q-2 -29 -24.5 -48t-51.5 -16t-48.5 25.5t-17.5 51.5z" />
<glyph unicode="(" horiz-adv-x="706" d="M29 424q-31 238 45 508q76 272 225 446q145 170 201 205l45 27q27 14 55.5 7t42.5 -31.5t7 -53.5t-32 -43l-45 -27q-37 -23 -167 -176q-129 -152 -195 -391q-68 -244 -41 -453q25 -199 113 -286q82 -84 155 -80q78 2 94 18l35 33q20 20 50 19t50.5 -22.5t19.5 -50 t-23 -48.5l-35 -35q-55 -51 -187 -56q-135 -6 -260 121q-121 123 -153 369z" />
<glyph unicode=")" horiz-adv-x="655" d="M20.5 24.5q2.5 28.5 24 49t51.5 18.5l88 -6q8 0 26.5 11.5t57.5 49t80 97.5q123 174 144 493q20 317 -80 484q-106 174 -183 247l-82 78q-20 20 -21 50t19.5 50.5t50 21.5t50.5 -19l82 -80q88 -84 204 -277q123 -201 101 -563q-23 -360 -170 -567q-76 -109 -142.5 -165 t-144.5 -52l-90 6q-29 2 -48.5 23.5t-17 50z" />
<glyph unicode="+" horiz-adv-x="880" d="M22.5 489.5q-8.5 28.5 7 54t42.5 31.5l159 43q113 31 201 56q-18 221 -26 293l-9 80q-4 29 14.5 52t47 26t52.5 -15t26 -47l8 -80q8 -70 24 -270q72 20 125 35l78 18q29 8 54.5 -7.5t32.5 -43t-8 -53t-42 -31.5l-78 -21q-63 -16 -149 -41q16 -172 14 -198v-19 q-2 -29 -23.5 -48t-50 -18t-49 22.5t-18.5 49.5v19q0 18 -11 153q-80 -20 -176 -47l-159 -43q-27 -8 -52.5 6.5t-34 43z" />
<glyph unicode="," horiz-adv-x="270" d="M20.5 -130q2.5 30 24.5 48l23 19q14 14 34 47q12 20 0 86q-14 78 -24 96l-12 24q-14 25 -7 53.5t32.5 43t54 6.5t42.5 -33l13 -24q20 -33 41 -140q23 -121 -19 -188q-33 -51 -63 -76l-23 -20q-20 -18 -50 -16.5t-49.5 23t-17 51.5z" />
<glyph unicode="-" d="M20.5 539.5q-2.5 29.5 17 52t48.5 24.5l41 5q45 2 143 6q94 4 209 10q119 8 152 8l33 2q29 0 50 -19.5t22 -48t-18.5 -51t-47.5 -22.5l-35 -2q-31 0 -146 -8q-119 -6 -215 -11q-94 -2 -135 -6l-43 -4q-29 -2 -51 16.5t-24.5 48z" />
<glyph unicode="." horiz-adv-x="186" d="M20.5 68q-0.5 30 20 49.5t50.5 19.5t50 -20l6 -6q20 -20 20.5 -49t-20 -49.5t-50 -20.5t-50.5 20l-6 6q-20 20 -20.5 50z" />
<glyph unicode="/" horiz-adv-x="634" d="M20 -57l35 204q37 209 109 474q70 264 155 524q86 264 125 346l37 78q14 27 42 36t53.5 -3.5t36 -40t-2.5 -54.5l-39 -77q-35 -74 -116 -328q-84 -258 -156 -518q-70 -258 -104 -459l-33 -205q-6 -29 -29.5 -46t-52.5 -12t-46.5 28.5t-13.5 52.5z" />
<glyph unicode="0" horiz-adv-x="804" d="M23 768q0 10 2 20q-2 23 -2 48q-8 131 20 305q33 193 195 342q84 78 152.5 112.5t135.5 16.5q102 -27 170 -131q59 -94 76 -195q16 -94 12 -248q-2 -147 -16 -331q-12 -193 -74 -367q-66 -184 -170 -260q-115 -82 -194 -60q-43 10 -76 42t-70 88q-63 98 -108 276 q-43 174 -49 260zM164 842q6 -115 10 -137l4 -25q6 -20 -4 -43q12 -70 39 -176q39 -158 90 -234q39 -61 64 -71q23 0 73 39q68 49 121 192q55 158 66 330q14 180 16 325q4 139 -10 220q-10 74 -55 141q-39 59 -89 74q-4 0 -20 -5.5t-54 -29t-81 -64.5q-127 -117 -152 -260 q-25 -160 -18 -276z" />
<glyph unicode="1" horiz-adv-x="264" d="M20 1579q0 31 20.5 51.5t49.5 20.5t50.5 -20.5t21.5 -49.5l2 -315q0 -309 24 -531q27 -225 45 -442q12 -104 12.5 -179t-22.5 -118l-22 -45q-12 -27 -41 -36t-54.5 3t-35 41t3.5 53l22 45q12 43 -4 224q-18 215 -43 438q-27 229 -26 547z" />
<glyph unicode="2" horiz-adv-x="768" d="M20 1207.5q0 29.5 21 49.5l94 97q102 106 213 166q135 72 234 18q61 -35 79.5 -108.5t14.5 -190.5q-6 -213 -115 -498q-106 -281 -203 -432q-59 -92 -106 -162q113 37 215 76q121 45 158 56l32 10q29 8 54.5 -6.5t34 -42t-6 -53t-41.5 -33.5l-34 -11q-33 -8 -148 -53 q-119 -43 -252 -88q-18 -6 -43.5 -16.5t-41 -16.5t-34 -10t-35 -3t-34.5 7q-35 12 -46.5 37t-4.5 45l6 21q12 29 59 94q59 84 150 225q88 139 188 408q100 262 107 450q2 49 -3.5 90t-10.5 58.5t-9 21.5q-31 16 -98 -18q-90 -49 -178 -140l-95 -96q-20 -20 -50 -21 t-50.5 19.5t-20.5 50z" />
<glyph unicode="3" horiz-adv-x="974" d="M23.5 1355.5q7.5 28.5 31.5 43.5l135 80q145 86 289 114q158 31 248 -18q23 -12 39 -31q70 -78 8 -239q-59 -158 -203 -324q-53 -59 -96 -107q102 12 219 -2q199 -27 246 -157q43 -119 -33 -303q-74 -178 -221 -291q-143 -106 -240 -133q-92 -25 -131 -23l-28 2 q-29 2 -48.5 24.5t-17.5 51.5t24.5 48.5t51.5 17.5l29 -3q18 0 84 17q68 18 190 110q119 90 176 232q55 135 31 201q-18 51 -129 65q-141 18 -250 -8q-127 -33 -147.5 -35t-51 17.5t-28.5 56.5q0 31 9 48t33.5 35.5t28.5 20.5q59 55 193 209q127 145 178 279q27 72 16 96 q-47 25 -151 4q-121 -23 -246 -96l-135 -80q-25 -16 -53.5 -8t-43 32.5t-7 53z" />
<glyph unicode="4" horiz-adv-x="1177" d="M20.5 570.5q-2.5 11.5 5 23.5t10.5 16t10 12l7 7q39 43 228 272q190 233 335 410q152 180 199 217q12 10 32.5 17t49.5 2t47 -31q25 -33 23 -101q-2 -86 -15 -282q-6 -146 -10 -314q39 8 64 12l67 17q27 6 52.5 -10.5t31.5 -45t-10.5 -53t-42.5 -30.5l-68 -15 q-35 -8 -96 -20q0 -207 12 -391l13 -203q2 -29 -17.5 -51.5t-48.5 -24.5t-51.5 17.5t-24.5 48.5l-12 204q-10 174 -12 371q-10 -2 -15 -4q-180 -37 -372 -84q-188 -45 -258 -65q-4 -4 -11.5 -7.5t-27 -6.5t-36 -1t-32.5 17.5t-22 46.5q-2 18 -4.5 29.5zM270 668 q49 12 109 26q195 49 379 86q18 4 43 8q2 190 12 353q6 115 8 192q-41 -47 -96 -114q-145 -174 -336 -406q-68 -84 -119 -145z" />
<glyph unicode="5" horiz-adv-x="823" d="M20 178l3 29q0 29 21.5 49t51 19t49 -22.5t19.5 -51.5l-2 -13q16 -12 47 -28q47 -27 158 59q129 98 170 262q41 154 -25 236q-59 76 -92 67q-63 -14 -148 -77q-8 -8 -17 -16.5t-31.5 -26t-44 -25.5t-45 -12t-43 10t-30.5 49q-8 25 -16 193q-8 162 -4 303q2 160 55 233 q57 80 168 101q92 16 228 12q133 -4 194 -12l57 -9q29 -4 47.5 -27.5t14.5 -52t-27.5 -46t-52.5 -15.5l-57 8q-55 8 -181 12q-121 4 -196 -10q-55 -10 -80 -43q-27 -39 -29 -153q-4 -137 4 -295q2 -35 4 -64q106 80 197 101q121 29 236 -117q109 -139 51 -361 q-55 -211 -221 -338q-184 -141 -312 -71q-2 2 -15 9t-17.5 9t-16.5 9.5t-16 11.5t-14.5 12t-14.5 14t-11 15.5t-9 18.5t-4.5 20.5t-2.5 23.5z" />
<glyph unicode="6" horiz-adv-x="765" d="M23 729q14 279 77 481q63 199 93 254l24 49q14 27 42 35t53.5 -5t34.5 -40.5t-3 -54.5l-27 -49q-23 -43 -81 -232q-57 -186 -72 -446q-4 -78 0 -150q20 31 43 64q111 154 260 209q49 18 95 21t90 -17.5t67 -69.5q47 -96 10 -272q-37 -168 -113 -270q-82 -115 -235 -144 q-80 -16 -147.5 20.5t-114.5 112.5h-4q-27 6 -43.5 31t-10.5 53l7 25q-14 41 -25 84q-29 133 -20 311zM215 346q4 -10 8 -18q33 -66 63.5 -85.5t67.5 -11.5q98 18 150 86q55 80 86 218q27 131 2 184q-8 18 -78 -8q-109 -39 -192 -158q-68 -94 -93 -158q-8 -20 -12 -35z" />
<glyph unicode="7" horiz-adv-x="966" d="M22.5 1350.5q-6.5 27.5 10 52t43.5 31.5l123 26q123 25 299 49q172 20 241 33q86 12 135 -2q29 -8 46.5 -29.5t22.5 -44t3 -59.5t-6 -61.5t-13 -67.5t-14 -61q-41 -227 -47 -453q-8 -231 -10 -391t-2 -207v-47q0 -29 -20.5 -49.5t-49 -20.5t-50 20.5t-21.5 49.5v47 q0 49 2 210t10 392q6 238 49 475q20 106 23 162q-16 0 -37 -4q-72 -10 -244 -33q-170 -23 -289 -47l-121 -25q-29 -6 -53 10.5t-30.5 44z" />
<glyph unicode="8" horiz-adv-x="722" d="M20 1229q0 145 105 241q104 96 242 86q139 -8 223 -122q86 -117 24 -308q-45 -139 -172 -317q29 -29 101 -109q96 -111 141 -258q47 -158 -14 -288q-68 -141 -254 -158q-176 -16 -287 88q-117 109 -68 324q38 165 175 360l-11 12q-59 53 -129 183q-76 133 -76 266z M162 1229q0 -96 57 -199q60 -108 103 -147q119 166 157.5 286.5t-4.5 180.5q-45 61 -119 67q-76 4 -135 -51q-59 -53 -59 -137zM199 377q-31 -135 26 -191q63 -61 178 -51q106 10 138 80q39 80 8 186q-35 119 -113 207q-51 57 -80 86q-127 -176 -157 -317z" />
<glyph unicode="9" horiz-adv-x="935" d="M29 1038q4 12 10 23q55 137 201 301q152 166 301 217q182 61 256 -37q53 -74 61 -160q8 -70 0 -249v-33q-10 -201 -10 -424t16 -406q16 -176 31 -215l18 -49q8 -27 -4 -53.5t-38.5 -36.5t-53 2t-37.5 39l-18 49q-20 57 -39 252q-16 188 -16 418q0 176 6 338 q-57 -61 -148 -133q-178 -143 -372 -86q-94 27 -142.5 92t-21.5 151zM164 995q-10 -18 1 -33.5t66 -31.5q125 -37 246 59q139 113 187 189q47 74 53 92l4 10q0 57 -2 86q-6 51 -37 92q-8 16 -96 -12q-115 -39 -240 -178q-129 -145 -178 -260q-2 -6 -4 -13z" />
<glyph unicode=":" horiz-adv-x="190" d="M20.5 931q-0.5 30 20 50t50.5 20t50 -20l6 -6q20 -20 20.5 -50t-20 -50.5t-50 -20.5t-50.5 20l-6 7q-20 20 -20.5 50zM25 597q0 30 20.5 50.5t49 20.5t48.5 -21l7 -6q20 -20 20 -50t-19.5 -50.5t-49 -20.5t-50.5 21l-6 6q-20 20 -20 50z" />
<glyph unicode=";" horiz-adv-x="251" d="M20.5 570q-0.5 30 20 49.5t50.5 19.5t50 -18l6 -9q20 -18 20.5 -47.5t-20 -50t-50 -20.5t-50.5 20l-6 6q-20 20 -20.5 50zM53 -110.5q-8 28.5 6 53.5l23 37q10 25 8 116q-2 106 -10 135l-8 35q-8 29 6 54.5t41.5 33.5t53.5 -6t34 -43l10 -35q12 -45 14 -172 q4 -137 -26 -190l-23 -37q-14 -25 -42.5 -32t-53.5 7.5t-33 43z" />
<glyph unicode="=" horiz-adv-x="825" d="M21.5 784.5q1.5 28.5 23 48t49.5 19.5l139 -6q135 -4 252 6q119 8 156 14l41 6q29 4 52.5 -14t27.5 -47t-14.5 -52.5t-47.5 -27.5l-38 -4q-41 -6 -164 -16q-125 -10 -269 -4l-141 4q-29 2 -48.5 23.5t-18 50zM96 438.5q-4 28.5 13.5 52t44.5 29.5l94 15q96 16 180 26 q84 8 162 12q84 6 119 2l32 -2q29 -2 47.5 -24.5t16.5 -51t-24.5 -48t-51.5 -17.5l-33 4q-27 2 -98 -4q-76 -4 -156 -12t-172 -25l-92 -14q-29 -6 -53.5 11.5t-28.5 46z" />
<glyph unicode="?" horiz-adv-x="624" d="M20.5 1256.5q2.5 29.5 24.5 48.5l86 77q100 88 231 115q154 33 216 -43q66 -84 -21 -217q-61 -94 -162 -219q-90 -109 -119 -227q-27 -115 0 -187q10 -27 19 -43q23 8 51 31q59 43 72 59l16 25q16 23 46 28t53.5 -11.5t28.5 -45.5t-11 -53l-19 -25q-23 -35 -102 -92 q-45 -33 -79 -48t-77 -13q-53 6 -80.5 43t-50.5 98q-41 111 -4 266q37 150 146 285q96 119 153 207q20 29 25 49q-25 4 -72 -4q-94 -20 -166 -84l-88 -76q-20 -20 -50 -18t-49.5 23.5t-17 51zM262.5 105q-0.5 30 20 50.5t50 20.5t50.5 -20l6 -6q20 -20 20.5 -50t-20 -50.5 t-50.5 -20.5t-50 20l-6 6q-20 20 -20.5 50z" />
<glyph unicode="@" horiz-adv-x="1497" d="M25 705q-25 305 127 557q152 256 462 387q315 133 506 77q195 -57 291 -208q94 -152 55 -431q-41 -274 -168 -399q-141 -137 -305 -92q-154 43 -200 254q-31 -43 -68 -88q-184 -215 -328 -133q-72 43 -87 125t18 164q59 172 272 321l197 135q23 18 52.5 13t45.5 -29l3 -3 t1 -3q33 -29 45 -50.5t8 -29.5l-2 -8q-2 -31 -35 -168q-4 -12 -6 -25q0 -35 4 -78q4 -37 11 -82q25 -158 106 -178q86 -25 170 55q92 92 127 320q33 225 -37 334q-66 106 -209 147t-411 -71q-270 -113 -398 -328q-129 -215 -108 -475q20 -258 158 -414q127 -145 395 -100 q139 25 226 57.5t112 60.5l73 91q18 23 48 25.5t52.5 -16t25.5 -47t-15 -50.5l-76 -93q-51 -63 -153.5 -101t-270.5 -67q-344 -57 -524 146q-168 193 -190 498zM446 782q3 -18 23 -30q4 -2 9 -2t17.5 4t28 13t40 31.5t52.5 55.5q80 94 121 174q18 35 31 66q0 53 8 94 l-94 -66q-176 -123 -221 -252q-18 -70 -15 -88z" />
<glyph unicode="A" horiz-adv-x="1185" d="M20 449q-1 5 -1 11q1 23 15 41q18 23 46 29l45 9q49 238 84 458q39 248 80 414q39 158 45 195q-2 6 -1 14t13 26.5t37 28.5q23 8 41 8q8 0 16 -2q22 -6 35.5 -24.5t20 -38t8.5 -33.5l2 -14q31 -90 108 -352q74 -252 177 -531q94 23 145 39q106 33 129 35l18 4 q29 4 53 -14q23 -18 28 -46q1 -6 1 -12q0 -22 -13 -40q-17 -24 -46 -27l-19 -4q-16 -2 -110 -31q-51 -14 -137 -37q78 -193 145 -313q94 -162 109 -187l16 -26q16 -23 10 -53q-6 -28 -30 -44q-17 -11 -36 -11q-8 0 -18 2q-28 7 -45 32l-16 25q-16 27 -111 192 q-78 135 -162 346q-39 -8 -81 -20q-244 -59 -375 -82q-47 -227 -56 -285l-8 -63q-4 -29 -28.5 -46.5t-52 -13.5t-46 27.5t-14.5 52.5l10 64q8 55 45 237q-27 0 -48.5 16.5t-27.5 43.5zM274 565q121 25 312 70q35 10 67 16q-100 276 -176 529q-31 104 -53 182 q-39 -156 -76 -387q-31 -197 -74 -410z" />
<glyph unicode="B" horiz-adv-x="913" d="M25 510q12 190 55 379q-4 88 -6 168q-4 106 -4 205l-2 266q0 29 20.5 50t50 21t50 -20t20.5 -49l2 -268v-29q47 74 104 129q145 139 283 164q33 6 63 6q114 0 179 -88q26 -37 30 -79q1 -10 1 -20q0 -33 -12 -67q-15 -45 -38.5 -86t-58.5 -90q-78 -104 -158 -182 q35 0 70 -9q76 -14 130 -65t77 -131q13 -43 13 -90q0 -125 -89 -285q-123 -219 -309 -291q-94 -37 -154 -51q-32 -8 -61 -8q-25 0 -48 6l-20 4q-4 -18 -12 -31q-29 -44 -56 -44q-45 0 -86 118q-23 78 -22 78q-16 99 -16 236q0 71 4 153zM221 877l4 -54q55 33 158 101 q137 90 264 262q25 35 42.5 65.5t24.5 49t10 33t2 19.5t-1 7q-22 29 -68 29q-16 0 -34 -3q-94 -16 -209 -126q-94 -90 -150 -242q-14 -37 -24 -76q-9 -32 -19 -65zM233 668q12 -201 13 -339q0 -90 -6 -153q-2 -18 -4 -37l28 -6q6 0 25.5 2t63.5 14.5t91 30.5q139 55 238 228 q71 128 71 214q0 28 -8 52q-14 47 -36.5 69.5t-63.5 30.5q-27 5 -56 5q-76 0 -167 -34q-31 -12 -57 -20q-62 -25 -97 -39q-8 -6 -16 -10q-10 -6 -19 -8z" />
<glyph unicode="C" horiz-adv-x="948" d="M27 428q-6 40 -6 91q0 114 28 284q41 250 148 434q113 195 237 252q59 27 115 28q78 0 149 -55q94 -72 121 -110l19 -29q16 -25 10 -54.5t-30.5 -45t-53.5 -9t-45 30.5l-19 29q-14 18 -88 78q-30 22 -63 22q-26 0 -55 -14q-84 -39 -175 -193q-94 -164 -131 -387 q-26 -160 -27 -262q0 -42 5 -74q14 -106 76 -219q51 -90 135 -98q6 -1 13 -1q80 0 163 91q109 117 164 219q61 109 69 125l9 17q12 25 40.5 35t54.5 -3q24 -14 34 -42q4 -12 4 -23q0 -16 -8 -31l-9 -16q-8 -18 -69 -131q-66 -117 -185 -246q-127 -136 -269 -136q-12 0 -23 1 q-158 14 -246 172q-76 135 -92 270z" />
<glyph unicode="D" horiz-adv-x="942" d="M20 1493v5q0 26 18 46q20 22 48 25h5q27 1 47 -17q22 -20 24 -49l8 -112q72 111 178 133q29 6 60 5q121 0 274 -89q199 -119 236 -426q6 -55 7 -109q0 -238 -120 -459q-143 -270 -299 -358q-18 -8 -50 -27.5t-44.5 -25.5t-33 -16.5t-34.5 -14.5t-29 -4l-24 -2h-8 q-41 0 -62 39q-16 16 -28.5 40.5t-17.5 43t-16.5 70t-17.5 77.5q-57 236 -80 529q-4 65 -4 124q0 89 9 166q-14 88 -25 156q-8 68 -12 117zM209 1090q10 -53 22 -113q53 -270 84 -553q20 -182 25 -264q37 18 96 51q119 68 246 303q100 187 100 388q0 47 -6 95 q-29 238 -166 320q-119 70 -199 70q-18 0 -34 -3q-76 -16 -131 -151q-8 -18 -15 -41q-14 -45 -22 -102z" />
<glyph unicode="E" horiz-adv-x="1101" d="M20 1475v5q0 26 18 45q20 21 50 23h5q25 0 45 -18q22 -20 24 -49l6 -117q41 10 143 27q141 25 279 53q137 29 192 43l58 14q29 8 54.5 -7t32.5 -43t-8.5 -53.5t-41.5 -31.5l-60 -16q-59 -14 -199 -43q-139 -29 -282 -56q-111 -18 -158 -30q8 -94 23 -222q18 -164 30 -323 l21 8q63 27 186 72q117 41 170 65q57 27 90 43l33 13q27 12 54.5 0.5t39 -38t0 -54t-38.5 -37.5l-32 -15q-31 -12 -86 -39q-57 -29 -183 -71q-119 -43 -178 -68l-61 -27q-4 -2 -8 -2q2 -6 2 -14q8 -236 14 -352q0 -23 2 -41q61 16 174 53q227 74 352 129q123 53 156 74 l35 24q25 16 55 10q29 -5 44 -29q11 -17 11 -37q0 -7 -2 -15q-6 -28 -28 -45l-37 -25q-41 -29 -176 -88q-131 -57 -367 -133q-39 -12 -84 -27.5t-65 -22.5q-22 -7 -54 -17q-29 -9 -41 -8h-3q-12 1 -38 3q-29 6 -47 22.5t-23 41t-6 44t0 46t1 35.5q-6 117 -15 352 q-10 231 -37 477q-31 252 -34 373z" />
<glyph unicode="F" horiz-adv-x="931" d="M20 1284q2 213 5 242l2 26q0 29 22.5 49.5t51 18.5t48 -23.5t19.5 -50.5l-2 -26q0 -14 -2 -95q27 10 69 27q92 35 185 61q88 25 190 58q109 33 156 43l43 8q7 2 14 2q21 0 39 -12q26 -16 30.5 -45t-12 -53.5t-44.5 -30.5l-43 -8q-39 -8 -140 -39q-104 -33 -196 -60 q-86 -23 -170 -55q-86 -33 -107 -41l-16 -8v-53q0 -189 12 -441v-2l80 35q90 39 225 104q133 63 185 97q61 39 108 59l43 19q27 10 55 -2q26 -12 38 -38q6 -13 6 -26.5t-6 -27.5q-12 -28 -40 -38l-41 -18q-37 -14 -88 -47q-59 -37 -198 -105q-137 -68 -232 -106l-92 -41 q-18 -8 -37 -4q8 -195 13 -305q4 -92 4 -145q0 -35 -2 -52l-5 -35q-4 -29 -26 -48q-19 -16 -44 -16h-8q-28 3 -46.5 26.5t-16.5 52.5l4 35q1 11 1 34q0 46 -3 142q-6 150 -18 446q-13 279 -13 483v29z" />
<glyph unicode="G" horiz-adv-x="1193" d="M29 567q27 158 164 389q135 233 327 377q190 141 328 191l129 45q11 3 22 3q17 0 33 -8q27 -12 36 -39.5t-3 -54t-41 -34.5l-129 -45q-117 -43 -291 -172q-168 -127 -291 -334q-123 -209 -145 -340q-6 -39 -6 -79q0 -89 31 -181q41 -117 133 -146q23 -7 48 -7 q78 0 177 69q147 104 256 258q88 127 139 200q-53 -6 -129 -18q-162 -27 -182 -29h-7q-27 0 -27 35q0 29 17 80q12 33 13 33q39 10 127 35q170 47 256 75q28 8 52 8q10 0 19 -1q45 -8 68 -42q22 -33 22 -67q0 -28 -4 -70q-23 -119 -55 -325q-35 -205 -49 -310 q-12 -111 -18 -126l-2 -15q-8 -29 -34 -43q-17 -9 -35 -9q-9 0 -18 2q-28 7 -43.5 31.5t-7.5 53.5l2 14q4 16 17 111q14 106 47 315q8 41 14 76q-31 -43 -65 -94q-123 -176 -293 -295q-135 -93 -256 -93q-46 0 -90 13q-162 51 -226 236q-39 113 -39 223q0 52 9 104z" />
<glyph unicode="H" horiz-adv-x="835" d="M20 977q2 262 3 399v135q0 29 21.5 50.5t50 21.5t49 -21.5t20.5 -50.5v-135q0 -137 -2 -401v-213l4 2q25 8 166 65q141 55 233 109q53 31 82 45q0 293 4 391l4 113q0 29 22.5 49t51.5 19t48.5 -22.5t19.5 -51.5l-6 -113q-2 -90 -3 -358q14 -12 23 -29q6 -14 6 -28 q0 -9 -3 -19q-7 -24 -26 -39v-6v-6v-144q0 -273 -6 -428q-6 -195 -14 -250l-6 -51q-4 -29 -27.5 -47t-52.5 -14t-46.5 27.5t-14.5 52.5l8 51q6 49 12 237q6 174 6 504q-6 -4 -12 -6q-100 -57 -250 -117q-145 -59 -172 -67l-25 -8q-10 -4 -22 -5q2 -76 6 -149q7 -180 7 -282 q0 -41 -1 -70q-4 -96 -4 -113v-20q0 -29 -20.5 -49.5t-49 -20.5t-50 20.5t-21.5 49.5v20q0 20 4 119q1 27 1 66q0 98 -7 274q-11 229 -11 473v41z" />
<glyph unicode="I" horiz-adv-x="235" d="M20 1542v5q0 27 18 47q20 22 49 23h3q28 -1 48 -19q22 -20 24 -48l8 -131q8 -131 27 -446q18 -317 18 -557v-91q0 -170 -6 -245l-6 -94q-3 -30 -25 -48q-20 -17 -45 -16h-6q-29 2 -48.5 24.5t-17.5 51.5l7 92q6 72 6 237v89q0 236 -19 549q-18 315 -26 446z" />
<glyph unicode="J" horiz-adv-x="929" d="M20 430v6q0 25 16 46q19 22 48 25t51.5 -15.5t26.5 -47.5l4 -47q12 -39 115 -157q111 -131 227 -162q29 -7 49 -7q17 0 29 5q24 10 45 47q55 100 55 332q-2 244 -49 592t-62 395l-16 53q0 2 -2 4q-63 -25 -131 -49l-115 -45q-27 -10 -54.5 2t-37.5 39t2 53.5t39 36.5 l115 45q115 43 231 90q113 45 164 62l49 14q10 3 20 3q17 0 33 -8q27 -13 35 -41q3 -10 3 -20q0 -18 -9 -35q-14 -26 -41 -34l-49 -15q-39 -12 -123 -45q4 -8 6 -16l17 -53q18 -59 67 -418q47 -358 49 -610q0 -266 -71 -400q-43 -78 -118 -107q-42 -17 -89 -17q-37 0 -76 10 q-160 41 -301 206q-51 61 -75.5 92t-46 70t-23.5 72z" />
<glyph unicode="K" horiz-adv-x="978" d="M27 1382l10 156q3 28 25 48q20 18 46 18h6q30 -2 48 -25t16 -51l-12 -158q-4 -58 -4 -138q0 -128 10 -312q4 -82 8 -162q0 2 2 6q84 139 281 358q195 215 289 299l92 82q20 18 50 17.5t50 -22.5q17 -19 17 -44q-1 -3 -1 -7q-2 -30 -22 -48l-92 -82q-88 -80 -277 -291 q-188 -207 -264 -334q-76 -125 -92 -188q-8 -29 -10 -49q31 -18 100 -49q135 -59 281 -132q143 -72 204 -104l64 -31q25 -14 34 -41.5t-4.5 -53.5t-41 -35t-54.5 3l-61 33q-61 31 -205 102q-141 72 -274 129q-12 4 -49 21q2 -53 2 -95q0 -104 -11 -134l-8 -27 q-10 -27 -36 -40q-16 -8 -32 -8q-10 0 -21 3q-28 8 -41 34.5t-5 53.5l8 25q3 22 3 85t-3 168q-6 248 -22 551q-9 175 -9 304q0 96 5 165z" />
<glyph unicode="L" horiz-adv-x="1075" d="M20 1043.5q0 218.5 5 304.5l4 86q1 29 23 48q20 18 49 18h3q30 -1 49 -23.5t17 -51.5l-4 -84q-4 -84 -4 -297t22 -524q20 -264 21 -354q74 20 229 76q190 68 330 106q137 37 170 45l35 10q29 6 53 -9q25 -14 32 -42q2 -9 2 -18q0 -18 -10 -36q-14 -26 -42 -32l-33 -10 q-35 -8 -170 -45q-133 -37 -318 -102q-193 -68 -266 -86q-17 -4 -35 -4q-29 0 -58 11q-46 17 -58 72q-4 18 -3 39v13q0 74 -18 356q-25 315 -25 533.5z" />
<glyph unicode="M" horiz-adv-x="1245" d="M20 1516q-1 2 0 4q0 8 6 24q8 20 31 35q33 23 58.5 19.5t42 -23t27 -42t14.5 -40.5l4 -16q47 -106 178 -408q129 -297 182 -387q8 16 17 35q57 129 122 311q68 188 150 369q86 184 109 213l2 4t6 9t10 10t17.5 8.5t25.5 5.5q7 1 14 1q38 0 54 -20q18 -24 14 -49l-6 -27 q-2 -37 -2 -286q0 -276 22 -480q23 -205 49 -380q27 -168 39 -197l15 -35q5 -13 5 -25q0 -15 -6 -29q-12 -28 -38.5 -39t-53 0t-38.5 38l-15 37q-18 43 -47 227q-27 180 -51 387q-23 211 -23 494v14q-66 -145 -118 -297q-68 -188 -129 -324q-6 -16 -19.5 -53t-23 -56.5 t-31 -40t-51.5 -24.5q-33 -6 -59.5 8.5t-38 32t-26 48t-16.5 36.5q-57 98 -190 404q-35 80 -62 141q4 -78 9 -172q10 -221 26 -459q16 -231 41 -332l25 -106q6 -29 -9.5 -53.5t-43.5 -31.5q-9 -2 -18 -2q-20 1 -36 11q-24 16 -30 43l-25 107q-27 113 -45 356 q-16 238 -27 461q-10 223 -18 354q-10 129 -14 174q-3 5 -5 13z" />
<glyph unicode="N" horiz-adv-x="960" d="M20 829q0 379 19 529q0 6 2 21.5t3 22.5t4 20.5t6 21.5t9.5 19.5t15.5 19.5t21 14q26 17 50 17q49 0 90 -70q51 -88 229 -479q174 -383 293 -580l12 -20q-6 82 -14 184q-15 181 -15 362v60q4 209 11 317l6 105q2 29 23.5 48t50 18t48 -23.5t19.5 -51.5l-6 -104 q-6 -104 -10 -311q-1 -41 0 -82q0 -164 12 -326q16 -205 29 -332q2 -2 5 -19q3 -16 6 -34q2 -13 2 -30v-10q-1 -22 -8 -40t-25.5 -32.5t-47.5 -16.5h-8q-34 0 -59 29q-29 33 -154 237q-121 203 -299 594q-106 236 -168 359q-10 -150 -10 -437q0 -371 26 -526l25 -160 q4 -29 -13.5 -52t-45 -28.5t-52 12t-28.5 46.5l-27 160q-27 166 -27 548z" />
<glyph unicode="O" horiz-adv-x="1040" d="M35 860l26 131q7 23 27 41q35 96 150 268q160 238 315 285q55 17 108 17q109 0 205 -70q144 -104 154 -332q1 -28 1 -57q0 -174 -42 -342q-49 -190 -137 -408q-92 -223 -211 -346q-118 -120 -240 -120q-19 0 -39 3q-139 20 -215 168q-65 125 -99 372q-17 128 -18 229 q0 92 15 161zM170 815q-8 -50 -8 -114q0 -91 16 -212q31 -223 84 -327q43 -82 113 -92q7 -1 15 -1q64 0 138 76q100 104 183 304q84 207 131 387q38 149 38 303q0 27 -1 55q-5 160 -95 224q-60 43 -126 42q-32 0 -64 -10q-109 -33 -238 -229q-135 -203 -145 -271l-10 -86 q-4 -31 -31 -49z" />
<glyph unicode="P" horiz-adv-x="1013" d="M22 1220l-2 14q0 21 13 40l39 53q39 53 78 113l4 9t9 15t14 14.5t23.5 13.5t32.5 5q49 -1 69 -31q15 -23 15 -45q0 -8 -2 -16l-6 -31q-2 -24 -4 -57q61 88 160 166q85 69 149 99q50 24 100 24q13 0 25 -2q96 -14 187 -119q67 -81 67 -204q0 -48 -10 -103 q-33 -180 -150.5 -315.5t-279.5 -190.5q-140 -48 -204 -48q-9 0 -17 1l-41 4q9 -167 9 -291q0 -41 -1 -78q-4 -168 -6 -207q2 0 4 -4t5 -13t0 -18.5t-17.5 -20.5t-38.5 -22q-28 -9 -47 -9q-5 0 -11 1q-22 4 -31.5 20.5t-12.5 34t-1 31.5l2 13q-6 55 -18 274q-3 55 -3 112 q0 148 19 306q-5 98 -5 182q0 28 1 55q2 76 6 142q4 27 7 59l-5 -6q-16 -23 -44.5 -28t-51.5 12.5t-29 45.5zM287 770q10 2 18 0l45 -6h3q35 0 155 41q125 43 217 149.5t121 249.5q8 42 8 76q0 72 -35 113q-55 63 -102 71q-6 0 -23.5 -6t-57.5 -28.5t-83 -57.5 q-131 -104 -178 -217q-20 -49 -39 -119q-25 -98 -45 -237q-2 -15 -4 -29z" />
<glyph unicode="Q" horiz-adv-x="1095" d="M27 637q20 264 102 489q84 231 195 340l100 97q19 19 47 19h3q30 -1 50.5 -21.5t19.5 -50t-22 -50.5l-100 -96q-88 -84 -160 -287q-76 -207 -96 -452q-4 -51 -4 -97q0 -160 49 -249q53 -100 151 -107h6q29 0 66 16q-27 59 -49 134q-57 177 -57 335q0 86 17 167 q48 227 183 378q135 152 263 187q31 9 59 9q46 0 84 -26q61 -41 86 -125q15 -51 15 -126q0 -127 -44 -322q-70 -307 -262 -537q-55 -68 -108 -115q29 -39 59 -53q65 -29 108 -29q17 0 31 5q51 18 84 63l45 66q16 23 45 28.5t52.5 -10.5t28.5 -46q1 -7 1 -14q0 -21 -12 -38 l-43 -66q-59 -84 -154 -116q-36 -13 -77 -13q-75 0 -168 43q-63 29 -117 99q-68 -36 -133 -36q-10 0 -19 1q-174 12 -266 178q-65 119 -65 309q0 56 6 119zM484 794q-14 -65 -14 -137q0 -135 50 -292q15 -48 31 -89q35 33 70 76q170 203 233 477q41 184 41 291q0 53 -10 88 q-12 41 -23 48q-4 4 -10 4q-9 0 -23 -7q-88 -25 -194 -145q-111 -123 -151 -314z" />
<glyph unicode="R" horiz-adv-x="1087" d="M20 1411v6q0 25 16 45q18 22 47.5 25.5t52 -16t26.5 -48.5l4 -39q102 70 293 123q116 31 200 31q64 0 109 -18q68 -30 92 -92q13 -35 12 -72q0 -31 -8 -64q-33 -131 -213 -291q-168 -152 -311 -235q-66 -39 -111 -64q100 -57 285 -151q197 -100 356 -184l160 -84 q25 -12 34 -41q4 -12 4 -23q0 -15 -8 -31q-13 -26 -42 -35.5t-53 5.5l-160 84q-160 84 -356 184q-174 90 -275 145q8 -199 29 -335q20 -160 30 -199l11 -45q8 -29 -8 -54q-16 -24 -44 -31q-9 -2 -17 -2q-19 0 -35 10q-24 15 -34 44l-10 43q-12 49 -35 213q-23 166 -30 406 q-3 103 -3 196q0 124 5 230q3 76 3 136q0 80 -5 132zM170 831q43 25 100 58q129 76 287 217q147 133 170 221q6 34 6 45q0 9 -18 17q-22 9 -57 9q-61 0 -160 -28q-170 -47 -254 -102l-68 -47q0 -74 -4 -181q-2 -96 -2 -209z" />
<glyph unicode="S" horiz-adv-x="1132" d="M25 891q25 176 172 319q137 135 307 222q164 82 268 112l96 29q10 3 20 3q18 0 34 -10q26 -14 34.5 -41.5t-6 -53t-41.5 -33.5l-98 -29q-90 -27 -244 -104q-150 -76 -272 -195q-113 -111 -131 -240q-3 -22 -3 -39q0 -27 8 -43q13 -26 56 -40q112 -41 285 -41h16h60 q162 0 280 -9q180 -12 234 -145q15 -37 15 -74q0 -103 -111 -215q-131 -129 -308 -192q-166 -59 -272 -86l-102 -27q-8 -2 -15 -2q-19 -1 -37 11q-26 16 -33.5 43.5t8 53t42.5 31.5l104 27q98 25 258 82q145 51 254 160q70 70 70 115q0 11 -4 20q-20 51 -113 57 q-112 8 -265 8h-63h-16q-200 0 -336 49q-86 33 -126 107q-29 54 -29 119q0 25 4 51z" />
<glyph unicode="T" horiz-adv-x="1417" d="M20 1382v7q0 25 18 45q20 22 48 26l203 17q166 14 354 16q4 25 23.5 42t44.5 17q27 0 47 -17t24 -44q211 0 342 6q109 4 155 5q15 0 24 -1h28q29 -3 49 -25q19 -21 18 -48q0 -30 -24 -50q-22 -20 -51 -18l-29 2q-25 0 -164 -6q-133 -6 -348 -6q-2 -86 -6 -271 q-6 -315 -6 -575t-2 -367q-2 -102 -2 -114v-15q2 -29 -18 -50q-22 -20 -50 -22q-2 0 -4 -1q-26 1 -46 19q-22 20 -23 48v14q0 16 2 123q2 106 2 365q0 262 6 577q4 174 6 271q-182 -2 -340 -17l-205 -16q-29 -2 -51.5 16.5t-24.5 46.5z" />
<glyph unicode="U" horiz-adv-x="1026" d="M20 1493q0 29 19.5 50.5t48.5 22.5h3q27 0 49 -20t22 -49l10 -299q8 -295 41 -547q31 -242 109 -383q25 -45 50 -73.5t36.5 -35.5t17.5 -7q4 0 12 6t28.5 37.5t39.5 83.5q61 166 112 409q51 250 93 434q41 188 69 271q-2 4 -3 9t-1 17.5t6 22.5t24.5 20.5t47.5 10.5 q39 2 59.5 -13.5t21.5 -38t-3 -46t-12 -42.5l-7 -16q-24 -95 -24 -321v-52q2 -268 59 -604q57 -346 58 -375v-22q-2 -29 -24 -49q-20 -20 -47 -20h-3q-29 1 -49.5 22.5t-18.5 50.5v18q-4 43 -55 352q-33 190 -49 363q0 -4 -4 -21q-53 -254 -117 -430q-37 -100 -86 -159.5 t-125 -59.5q-125 0 -229 189q-92 166 -127 436q-31 258 -41 559z" />
<glyph unicode="V" horiz-adv-x="1148" d="M25 1436q-5 12 -5 24q0 16 7 30q12 26 38.5 37t53 -1.5t39.5 -38.5l51 -135q53 -137 172 -529q117 -387 180 -549q23 -53 37 -94q12 45 29 105q61 254 133 532q74 283 139 459q66 174 80 211l14 33q10 29 38 40q14 5 27 5q14 1 28 -5q26 -12 38 -38q6 -14 5 -28 q0 -13 -5 -26l-14 -34q-12 -35 -78 -207q-63 -170 -135 -447q-72 -276 -133 -528q-8 -31 -18.5 -83t-17.5 -81t-19.5 -61.5t-31 -52t-44.5 -27.5q-17 -6 -33 -6q-26 -1 -47 17q-33 28 -45 62q-12 37 -78 203q-66 168 -184 559q-117 385 -168 518z" />
<glyph unicode="W" horiz-adv-x="1677" d="M23 1477q-2 8 -2 15q0 19 11 37q16 25 44 31q8 2 16 2q19 0 37 -10q25 -16 31 -45l18 -80q16 -76 141 -432q123 -360 185 -534q18 -57 35 -101q29 88 63 232q53 219 111 409q6 18 16 53.5t15.5 52.5t14.5 39.5t20.5 37t27.5 22.5q18 9 36 9q13 0 27 -5q32 -12 41 -34 q12 -25 72 -226q55 -190 141 -389q61 -137 109 -233q20 137 47 344q31 264 98.5 476t108.5 288l39 69q12 25 40.5 34t54.5 -5t34 -42q3 -10 3 -20q0 -17 -9 -34l-37 -70q-35 -66 -98.5 -264.5t-94.5 -448.5q-31 -258 -57 -409q0 -2 -2 -8q-2 -20 -5 -34t-12.5 -37.5 t-20.5 -37.5q-12 -15 -34 -23q-15 -6 -33 -5q-9 0 -18 1q-10 2 -18.5 5.5t-15.5 7.5t-12 7t-10 10t-8.5 10t-8.5 12.5t-6 10.5t-6 11l-5 10q-61 113 -152 318q-90 207 -149 407q-2 10 -6 21q-51 -174 -101 -373q-55 -223 -92 -321q-2 -2 -4 -10.5t-5 -15.5t-8 -19.5 t-12.5 -20.5t-15.5 -18.5t-18.5 -16.5t-21.5 -9t-26.5 -1t-31.5 8q-31 14 -47 49q-27 53 -88 230q-59 174 -185 534q-125 365 -143 449z" />
<glyph unicode="X" horiz-adv-x="1038" d="M24 1478q9 28 33.5 42t53 5t43.5 -34l96 -178q90 -164 252 -445q106 186 164 279q78 127 149 248l72 123q15 25 43 33q10 3 18 3q18 0 35 -10q25 -16 33 -44q3 -9 3 -18q0 -18 -11 -36l-70 -121q-74 -123 -154 -254q-63 -104 -200 -344q129 -221 190 -319 q74 -119 105 -164l32 -47q16 -23 11.5 -52.5t-29.5 -46t-53.5 -10.5t-44.5 29l-33 47q-33 47 -109 170q-51 84 -151 252q-170 -299 -236 -432l-71 -142q-12 -27 -40 -36q-11 -4 -22 -4q-17 0 -33 8q-26 14 -35.5 41.5t5.5 54.5l69 141q72 143 260 471q10 23 21 39 q-10 20 -21 35q-178 307 -274 485l-96 176q-9 16 -9 33q0 11 4 22z" />
<glyph unicode="Y" horiz-adv-x="1007" d="M21 1320q4 30 27.5 47t52 13t46.5 -26l113 -148q113 -147 223 -280q72 -88 117 -140q23 63 49 134q127 352 166 446l37 94q10 27 38 38q15 6 29 6q13 0 25 -5q27 -10 38 -37q6 -15 6 -29q0 -13 -5 -26l-37 -92q-37 -92 -164 -443q-43 -115 -77 -215q2 -10 2 -20 q0 -29 -23 -49q-2 -2 -6 -4q-57 -164 -98 -289q-76 -236 -101 -277l-20 -30q-14 -25 -44 -32q-9 -2 -18 -2q-19 0 -35 10q-24 16 -31 44.5t9 52.5l18 33q18 31 88 244q41 129 101 295l-10 12q-49 53 -162 189.5t-228 285.5l-112 148q-15 19 -15 42q0 5 1 10z" />
<glyph unicode="Z" horiz-adv-x="1046" d="M20 1472v7q0 25 18 45q20 22 48 24l86 6q90 6 244 9q51 1 104 1q105 0 215 -3q170 -6 219 -17q40 -10 58 -34q16 -22 16 -49v-6q-2 -30 -10 -54.5t-21 -40.5q-45 -72 -200 -256q-150 -176 -281 -375q-133 -201 -223 -369q-66 -121 -103 -186q76 -2 220 -2q48 0 92 1 q130 0 217 -5q111 -6 143 -6h35q29 0 49.5 -20.5t20.5 -49.5t-20.5 -50.5t-49.5 -21.5h-35q-35 0 -151 7q-85 5 -212 5q-42 0 -89 -1q-48 -1 -89 -1q-123 0 -180 5q-41 5 -79 31q-35 24 -35 69v10q2 29 18 58q33 55 123 225q94 172 229 379q137 205 291 389q125 145 174 217 q-49 2 -131 6q-108 3 -211 3q-52 0 -102 -1q-150 -2 -236 -8l-86 -6q-29 -2 -51.5 17.5t-24.5 47.5z" />
<glyph unicode="a" horiz-adv-x="833" d="M20 184q-1 13 -1 26q0 146 81 359q88 231 213 383q29 35 42.5 50.5t46.5 43.5q32 30 54 40q21 10 50 9h5q32 -1 60 -22q43 -33 62.5 -90t36.5 -164q27 -172 57 -291q31 -125 59 -299l27 -174q2 -7 2 -14q1 -20 -13 -38q-18 -23 -46.5 -28.5t-52 12t-29.5 46.5l-27 174 q-12 77 -26 145q-37 -63 -95 -155q-78 -129 -158 -193q-62 -49 -130 -49q-19 0 -39 4q-82 18 -127 78.5t-52 146.5zM162 195q4 -51 18.5 -71t46.5 -26h4q11 0 30 8q22 10 61.5 52.5t85.5 111.5q121 197 135 244l4 39q4 23 20 41q-18 92 -37 203q-14 96 -32 141 q-31 -25 -76 -78q-111 -131 -189 -340q-72 -188 -72 -305q0 -10 1 -20z" />
<glyph unicode="b" horiz-adv-x="806" d="M20 1483q0 29 20.5 50t49.5 22h3q27 0 47 -19q22 -20 22 -49l2 -74q1 -37 1 -116t-1 -199q-1 -70 -1 -140q0 -141 3 -284l67 67q111 109 248 181q87 45 150 45q68 0 110 -52q45 -56 44 -162q0 -38 -5 -83q-20 -150 -106 -332q-86 -180 -160 -266q-78 -92 -178 -133 q-49 -20 -92 -20q-69 0 -123 50q-76 72 -82 250q-6 133 -12 338v57q-5 183 -5 365q0 61 1 121q1 119 1 196.5t-1 114.5zM172 442q4 -127 8 -217q4 -121 37 -153q12 -11 30 -11q16 0 36 9q68 29 125 94q61 72 139 235q78 162 94 289q5 40 5 69q0 46 -13 68q-27 0 -86 -30 q-119 -61 -215 -156q-96 -94 -125 -139l-31 -54q-2 0 -4 -4z" />
<glyph unicode="c" horiz-adv-x="770" d="M23 532q12 229 129 400q33 47 51 70.5t49 55.5q32 32 62 43q22 8 47 8q9 0 18 -1q86 -10 139 -90q41 -61 62 -135l16 -62q8 -29 -6.5 -54.5t-43 -33.5t-54 7.5t-31.5 41.5l-19 64q-14 51 -43 94q-14 20 -30 27q-37 -23 -101 -115q-94 -137 -104 -328q-1 -21 -1 -41 q0 -154 68 -239q56 -69 121 -69q14 0 29 3q92 23 131 92q49 92 74 166l26 80q8 29 35 41t55 4q26 -9 40 -35q7 -15 8 -29q0 -13 -5 -26l-26 -78q-27 -86 -84 -190q-68 -127 -223 -162q-34 -8 -67 -8q-126 0 -224 121q-100 123 -100 323q0 27 2 55z" />
<glyph unicode="d" horiz-adv-x="835" d="M31 244q-10 52 -10 112q0 93 24 205q45 195 225 324q29 20 43.5 30.5t40 26.5t41 23.5t37 16.5t38.5 12t35.5 2t37.5 -5q51 -16 86 -65q25 272 35 403l10 137q2 28 24 48q20 17 45 17h7q30 -3 48 -25q17 -20 17 -46v-6l-10 -137q-12 -139 -37 -430q-16 -197 -25 -361 q19 -22 19 -46q0 -15 -8 -31l-15 -25v-41q-6 -205 -8 -283v-39l-84 -30q-20 -5 -33 -5q-22 0 -24 13v59v4v127q-55 -55 -127 -110q-108 -81 -207 -81q-29 0 -57 7q-70 18 -113 70.5t-55 128.5zM168 270q8 -45 23.5 -63.5t39.5 -24.5q11 -3 23 -3q53 0 123 52q104 80 164 156 q10 14 18 25q13 16 23 30q-2 33 -4 68q-4 41 -9 82q-18 145 -39 217q-12 37 -26 45q-43 -8 -152 -84q-137 -96 -168 -240q-23 -101 -23 -180q0 -43 7 -80z" />
<glyph unicode="e" horiz-adv-x="966" d="M24 570q10 28 37 40l33 15q12 6 37 20l8 4q0 6 2 13q0 18 2 36q18 213 111 320q96 111 205 117q11 1 22 1q85 0 168 -42q92 -45 129 -90q21 -30 21 -61q-1 -10 -3 -20q-8 -42 -38 -67q-18 -14 -43 -27q-63 -29 -203 -112q-141 -87 -229 -146q6 -123 49 -249 q59 -172 149 -209q23 -10 45 -9q14 0 28 3q36 10 79 53q94 100 125 202q35 121 43 152l8 31q6 29 31.5 44t53.5 8t43 -33q11 -18 11 -37q0 -8 -2 -15l-8 -33q-8 -33 -45 -155q-39 -137 -160 -263q-67 -68 -143 -89q-31 -8 -63 -8q-48 0 -99 18q-150 61 -229 292 q-37 111 -52 220l-26 -13q-27 -12 -55 -2t-40 37q-7 15 -6 29q-1 12 4 25zM291 745q66 41 147 93q121 74 189 106q-16 12 -41 25q-50 25 -101 25q-9 0 -18 -1q-49 -2 -107 -67q-49 -58 -69 -181z" />
<glyph unicode="f" horiz-adv-x="784" d="M26 656q-6 13 -6 26.5t6 27.5q11 27 37 38l93 38q45 18 98 39v38q0 211 41 390q55 227 84 287q20 43 61 68q28 16 59 16q15 0 31 -4q84 -20 123 -139q31 -90 31 -189q0 -90 -2 -121l-2 -26q-2 -29 -23.5 -48.5t-50 -18.5t-48 23.5t-19.5 51.5l2 29q2 25 2 108 q0 76 -23 148q-8 20 -16 35q-23 -55 -72 -252q-37 -154 -37 -338q111 43 187 75l84 37q27 12 53 1t39 -36q6 -14 6 -28q0 -13 -5 -26q-11 -27 -38 -40l-84 -37q-84 -37 -211 -88q-14 -4 -27 -10q16 -258 54 -405q37 -158 49 -205l12 -49q8 -29 -7 -54.5t-43 -31.5 q-8 -2 -17 -2q-19 0 -37 10q-25 14 -33 43l-12 49q-12 47 -50 207q-37 145 -53 383q-29 -10 -53 -21l-90 -39q-27 -10 -54.5 1.5t-38.5 38.5z" />
<glyph unicode="g" horiz-adv-x="790" d="M29 -352l6 16q10 27 37.5 38t54.5 1q37 -14 43 -55q20 -10 49 -25q75 -34 168 -34q14 0 29 1q88 4 137 97q61 113 68 319q5 166 5 337q0 57 -1 114v288q-33 -74 -76 -170q-109 -244 -213 -344q-77 -74 -149 -74q-19 0 -37 5q-35 8 -62 35q-53 49 -55 138v12q0 83 26 171 q53 219 236 395q92 90 151.5 136.5t108.5 62.5l66 23q13 5 25 5q14 0 28 -7q9 1 17 1q38 0 57 -16q24 -18 22 -41l-2 -20q0 -14 -2 -193v-405v-116q0 -173 -4 -341q-8 -242 -84 -383q-86 -162 -254 -170q-15 -1 -30 -1q-127 0 -232 46q-4 2 -18.5 7t-28 10.5t-31.5 14.5 t-29.5 19.5t-22.5 26.5q-11 14 -11 29t8 47zM179 316q3 -15 5 -17h2q18 2 52 35q84 80 182 299q102 232 151 332q-63 -41 -178 -154q-154 -147 -196 -326q-14 -59 -17 -106q-2 -25 -2 -41q0 -14 1 -22z" />
<glyph unicode="h" horiz-adv-x="882" d="M23 1087q6 260 12 371l6 109q1 29 23 49q20 18 45 18h5q28 -2 49 -24.5t19 -50.5l-6 -109q-8 -109 -12 -365q-2 -84 -2 -176t2 -192l8 16q121 254 236 328q86 54 166 54q36 0 71 -11q119 -37 176 -234q42 -153 42 -310q0 -20 -1 -40q-6 -168 -20 -282l-15 -113 q-4 -29 -27.5 -47.5t-52 -14t-47 27t-14.5 50.5l14 113q14 111 21 272q1 19 1 38q0 136 -38 267q-12 47 -29.5 80t-29 44.5t-21.5 13.5q-13 4 -28 4q-41 0 -93 -33q-80 -49 -184 -268q-68 -139 -94 -266q-16 -76 -21 -148q-2 -78 -4 -131q2 -29 2 -43q2 -4 6.5 -11 t8.5 -25.5t1 -35t-20.5 -33t-50.5 -22.5q-23 -4 -40 -4q-9 0 -15 1q-20 3 -26.5 14.5t-7.5 22.5t1 21l2 8q-3 13 -3 56q0 21 1 49q-2 86 -8 274q-2 43 -4 90q-6 212 -6 393q0 108 2 205z" />
<glyph unicode="i" horiz-adv-x="221" d="M20 641q-1 63 -1 116q0 134 4 210l4 106q0 29 21.5 49.5t50 19.5t49 -22.5t20.5 -50.5l-4 -106q-3 -69 -3 -188q0 -60 1 -132q2 -219 2 -366.5v-172.5v-24q0 -29 -20.5 -49.5t-49 -20.5t-50 20.5t-21.5 49.5v24v172t-3 365zM53 1554q1 30 21 50t50 20t50 -20l6 -7 q20 -19 20 -49v-2q0 -28 -20 -48t-50 -20.5t-50 19.5l-6 6q-21 20 -21 51z" />
<glyph unicode="j" horiz-adv-x="706" d="M25 -307q-4 12 -4 23q0 16 7 30q13 27 40.5 36t53 -3t36.5 -41l10 -31q25 -20 98 -45q23 -8 44 -8q17 0 33 5q36 11 75 56q82 96 86 381q4 311 12 594q6 289 19 334l12 35q8 27 33.5 41t53.5 5t42 -35t6 -54l-12 -33q-8 -41 -13 -297q-8 -281 -12 -592q-4 -336 -121 -471 q-61 -72 -139 -97q-37 -11 -76 -11q-43 0 -88 14q-55 18 -81.5 29.5t-57.5 36t-43 57.5zM539 1359q0 30 20.5 50.5t50 20.5t49.5 -21l7 -6q20 -20 20 -50t-20.5 -50.5t-50 -20.5t-50.5 21l-6 6q-20 20 -20 50z" />
<glyph unicode="k" horiz-adv-x="835" d="M20 1327l3 176q0 29 21.5 49.5t50 20.5t49 -21.5t20.5 -50.5l-2 -176v-22q0 -171 28 -482q10 -98 19 -186q25 29 57 65q125 139 228 236l100 94q20 20 50 19.5t50.5 -21t19.5 -50.5t-24 -50l-100 -94q-98 -92 -219 -228q-96 -111 -142 -160q2 -6 2 -14q59 -43 224 -131 q190 -102 245 -137q43 -27 58 -33l12 -4q27 -10 39 -37q7 -15 7 -31q0 -11 -4 -23q-9 -26 -36.5 -39t-54.5 -3l-14 6q-18 6 -80 43q-53 33 -240 135q-78 41 -129 72q19 -125 19 -176q0 -11 -1 -19l-4 -32q-4 -29 -28 -47q-19 -15 -42 -16q-6 0 -10 1q-28 4 -45.5 26.5 t-15.5 51.5l4 33v5q0 40 -24 199q-6 41 -13 89q-23 33 -24 69q0 25 10 47q-16 141 -35 326q-29 321 -29 498v22z" />
<glyph unicode="l" horiz-adv-x="202" d="M20 1638v5q0 27 18 47q20 22 48 24h5q27 0 47 -18q22 -20 24 -47l2 -45q3 -33 3 -128q0 -47 -1 -110q0 -188 2 -545q2 -356 8 -534q8 -182 8 -215v-31q0 -29 -21.5 -50.5t-50 -21.5t-49 21.5t-20.5 50.5v31q0 31 -8 209q-6 180 -8 538t-2 547q1 93 1 149.5t-1 77.5z" />
<glyph unicode="m" horiz-adv-x="1075" d="M20 1159q0 29 20.5 50.5t49.5 21.5t50.5 -20.5t21.5 -49.5l2 -186q2 -78 4 -182q29 68 65 129q39 68 76 106q60 63 124 63q9 0 18 -1q39 -8 71 -39q55 -51 84 -177q31 61 70 103q16 18 35 33q48 38 97 38l17 -1q59 -8 101 -66q74 -94 94 -326q18 -211 22 -333 q4 -115 9 -148l4 -35q1 -5 1 -11q0 -24 -14 -42q-18 -24 -46 -27q-5 -1 -11 -1q-21 0 -41 14q-24 18 -29 47l-4 35q-6 41 -10 163q-4 119 -22 326q-16 190 -66 254q-2 4 -6 8q-12 -6 -29 -24q-70 -74 -102 -240q-23 -119 -31 -192q1 -30 1 -53q0 -45 -3 -60q2 0 3 -2t2 -8.5 t-2 -13.5t-13 -16t-29 -20q-35 -18 -56.5 -13t-31.5 26.5t-14 44t-4 41.5l2 18q0 25 4 60q-4 76 -12 198q-6 117 -26 194t-38 101q-31 -23 -74 -94q-100 -172 -131 -381q-2 -14 -4 -27q-29 -183 -29 -271v-11v-19q2 -39 3 -51q0 -16 -3 -24q-5 -18 -20 -18q-32 0 -113 81 l-8 8q-2 88 -10 314q-2 18 -2 32q-12 309 -14 488z" />
<glyph unicode="n" horiz-adv-x="854" d="M20 971l5 153q-1 30 21 50q20 20 48 19h2q28 -1 49 -21.5t21 -49.5l-4 -153q-1 -42 0 -90q0 -96 2 -217q47 133 115 245q57 98 113.5 150.5t129.5 52.5q76 -2 127 -57.5t99 -153.5q84 -184 86 -424v-93q0 -148 -5 -194l-6 -55q-3 -29 -25 -48q-19 -16 -43 -16h-7 q-28 3 -48 25.5t-16 50.5l4 58q4 38 4 171v99q-2 209 -74 367q-23 49 -47 81.5t-35.5 40t-15.5 7.5t-18.5 -8.5t-43 -41t-59.5 -83.5q-94 -160 -145 -371q-51 -215 -55 -279q0 -2 1 -6t1.5 -17t-2 -22.5t-8 -23t-16.5 -18.5t-28.5 -8t-44.5 7q-27 8 -43 22.5t-20 32t-3 32 t4 27.5l3 13q-9 113 -17 351q-6 188 -6 326v69z" />
<glyph unicode="o" horiz-adv-x="786" d="M27 438q20 141 45 219l18 60q12 92 45 170q43 100 152 186q113 90 217 90h5q112 0 181 -90q63 -80 74 -170q1 -15 2 -35q0 -88 -29 -274q-37 -231 -127 -395q-94 -168 -186 -222q-58 -33 -118 -33q-50 0 -101 23q-104 49 -154 189q-31 89 -31 188q0 46 7 94zM168 418 q-5 -39 -6 -76q0 -73 22 -137q31 -86 82 -111q20 -9 39 -9l47 13q59 35 135 170q78 141 111 348q28 177 28 248q0 13 -1 23q-6 51 -45 98q-29 37 -76 37q-55 0 -131 -59q-80 -63 -107 -129q-23 -55 -33 -121q0 -13 -4 -27q-2 -6 -2 -10l-8 -96q-4 -33 -35 -54 q-8 -47 -16 -108z" />
<glyph unicode="p" horiz-adv-x="827" d="M20 950q0 29 19.5 50.5t48.5 22.5t50.5 -19.5t23.5 -49.5l6 -161q45 94 111 168q133 147 266 147q133 -2 209 -86q55 -59 55 -159q0 -50 -14 -111q-37 -168 -199 -336q-154 -162 -219 -203q-63 -37 -113 -61l-45 -21q-2 -2 -8 -4q23 -309 27 -469q4 -109 4 -169 q0 -40 -2 -58q2 -2 4 -5.5t4 -12.5t-1 -17t-18.5 -18.5t-42.5 -18.5q-14 -5 -27 -5q-9 0 -17 3q-19 6 -31.5 18.5t-19.5 33t-10 41t-4 42t-1 37.5t1 29l1 12q-18 186 -19 514q0 74 2 141q-12 158 -20 281q-10 150 -14 252zM205 281q43 20 98 53q51 33 191 180 q133 139 161 268q11 50 11 84q0 42 -17 60q-35 39 -104 41q-70 0 -162 -101q-100 -113 -139 -284q-10 -39 -19 -86q-14 -94 -20 -215z" />
<glyph unicode="q" horiz-adv-x="845" d="M41 195q-21 63 -21 142q0 87 25 195q47 205 188 373q150 176 304 195q19 2 38 2q57 0 105 -24q63 -31 82 -103q25 -98 29 -305l8 -441q4 -238 10 -368q6 -133 10 -238l6 -104v-5q0 -26 -17 -46q-20 -23 -50 -24h-2q-28 0 -48 18q-22 20 -24 49l-4 104q-6 106 -12 238 q-6 135 -11 374l-2 45q-51 -70 -125 -143q-115 -114 -243 -114q-19 0 -39 3q-74 10 -128 57.5t-79 119.5zM176 240q12 -39 32.5 -57.5t59.5 -22.5q10 -2 21 -2q70 0 141 71q102 100 154 189q51 86 59 104l6 21q0 2 2 4l-2 121q-4 190 -24 270q-2 12 -5.5 14t-18.5 8 q-6 3 -16 3q-13 0 -32 -5q-98 -10 -211 -143q-121 -141 -160 -313q-20 -92 -20 -162q0 -58 14 -100z" />
<glyph unicode="r" horiz-adv-x="735" d="M23 907l4 103q1 29 23 49q20 18 45 18h5q28 -2 49 -23.5t19 -49.5l-4 -103q-2 -33 -2 -77q0 -67 4 -160q39 121 102 200q96 127 195 162q90 33 141 33l39 2q29 0 50.5 -20.5t21.5 -49t-20.5 -50t-49.5 -21.5l-39 -2q-29 0 -96 -25q-59 -20 -131 -113q-74 -98 -109 -272 q-37 -188 -47 -295q-2 -14 -63 -70q-50 -45 -72 -45q-16 0 -16 25q-2 20 -17 125q-16 121 -26 336q-8 145 -8 240q0 48 2 83z" />
<glyph unicode="s" horiz-adv-x="735" d="M22 120q8 28 35 42t54 6l55 -16h27.5t59.5 8t89 20q133 37 190 123q41 59 41 86q-16 20 -84 35q-104 23 -180 33q-100 16 -182 88q-80 69 -80 169q0 22 4 46q20 111 123 217q100 106 223 141q86 27 147 27q23 0 42 -4l53 -11q29 -6 45 -30.5t11 -52t-29.5 -44 t-53.5 -12.5l-53 10q-8 2 -19 2q-36 0 -104 -20q-84 -25 -160 -102q-72 -78 -86 -148q-1 -9 -1 -17q0 -38 30 -65q51 -45 111 -53q82 -12 190 -37q137 -29 178 -108q15 -29 15 -64q0 -71 -64 -166q-86 -127 -268 -178q-124 -36 -199 -36q-32 0 -55 7l-55 17q-30 7 -44 33 q-9 16 -9 33q0 11 3 21z" />
<glyph unicode="t" horiz-adv-x="722" d="M24 901q10 29 37 39l127 59q8 4 17 9q-2 139 -2 245l-2 234q0 31 21.5 51.5t50 20.5t49 -20.5t20.5 -49.5l2 -236v-176q39 20 74 39q104 59 137 84l37 25q23 16 52 11q30 -4 46 -28q12 -18 13 -39q1 -7 -1 -14q-6 -29 -30 -45l-35 -27q-39 -27 -150 -90q-66 -37 -139 -73 q2 -131 8 -285q12 -389 19 -516l6 -127q2 -29 -17.5 -51.5t-49.5 -23.5h-2q-28 1 -48 19q-22 20 -24 48l-7 129q-6 127 -18 516q-4 119 -6 225l-88 -41q-27 -12 -55 -2q-28 9 -40 35q-7 14 -6 29q-1 13 4 26z" />
<glyph unicode="u" horiz-adv-x="786" d="M23 745q10 158 20 244l10 84q3 29 27 47q19 15 42 15q5 -1 11 -1q29 -4 47.5 -27.5t14.5 -51.5l-11 -84q-12 -82 -20 -236q-2 -30 -2 -62q0 -125 31 -284q27 -131 55 -180q35 31 82 106q109 168 186 412q51 158 74 240q8 61 16 88v6t1 15t4 21.5t10.5 19.5t18.5 13.5 t29.5 2t43.5 -14.5q45 -22 53 -50q3 -10 3 -19q0 -15 -9 -25l-15 -18q-4 -23 -16 -68q-8 -66 -18 -172q-2 -43 -6 -82q-3 -54 -3 -105q0 -103 11 -196q20 -180 37 -252l14 -76q6 -29 -10 -53q-18 -25 -46 -31q-8 -2 -14 -2q-20 1 -38 13q-24 16 -31 45l-15 75 q-16 80 -37 265q-6 43 -8 90q-53 -119 -116 -217q-20 -33 -34 -52.5t-36.5 -49t-43 -44t-45 -28t-51 -11.5t-53.5 19q-55 31 -81.5 98.5t-51.5 189.5q-32 171 -32 310q0 38 2 73z" />
<glyph unicode="v" horiz-adv-x="802" d="M25 975q-5 12 -5 25q0 16 7 30q12 28 39.5 36.5t54 -3.5t37.5 -39l41 -113q43 -113 100 -305q57 -188 109 -311q0 -2 4 -10q16 57 34 137q51 209 105.5 383t75.5 227l20 51q10 27 37 39q14 6 28 6t26 -6q26 -10 38 -36q7 -14 7 -30q0 -12 -5 -24l-20 -51 q-18 -49 -70.5 -219t-103.5 -373q-51 -213 -80 -280q0 -2 -1 -7.5t-6 -17.5t-11.5 -22.5t-16.5 -21.5q-9 -10 -23 -16q-9 -4 -21 -4h-11q-18 2 -39 15q-29 16 -39 53q-10 33 -60 154q-53 129 -112 323q-57 188 -98 299z" />
<glyph unicode="w" horiz-adv-x="1101" d="M20 1026v6q0 26 16 46q18 24 47.5 27t52 -15.5t26.5 -47.5l16 -151q16 -147 60 -367q12 -63 22 -116q8 33 16 67q68 279 113 412q2 4 7 19.5t7.5 20.5t7.5 18t10 19.5t13 15.5t18.5 15t22.5 11q23 6 38 8t30.5 -8.5t23.5 -18.5t16.5 -22.5t11.5 -21.5t5 -15 q33 -90 107 -316q57 -178 114 -293q10 84 27 218q33 287 51 374q20 86 33 131l12 43q6 27 32 43q16 10 34 10q10 0 20 -4q29 -8 43 -34q9 -16 9 -33q0 -10 -3 -20l-12 -43q-10 -41 -29 -123q-18 -82 -51 -361q-33 -287 -51 -358q-6 -30 -35 -58q-19 -19 -46 -19q-13 0 -28 5 q-14 4 -27.5 12.5t-20.5 13.5t-18 20.5t-14.5 20.5t-14.5 25.5t-11 22.5q-74 133 -150 364q-39 125 -67 209q-39 -125 -92 -346q-2 -12 -9 -35q-59 -244 -90 -286q-6 -8 -19 -18.5t-41 -18.5q-7 -2 -15 -2q-20 0 -37 16q-14 8 -23.5 19.5t-13.5 23.5t-6 20.5t-3 23.5t-1 20 q-10 80 -56 301q-43 227 -61 381z" />
<glyph unicode="x" horiz-adv-x="671" d="M24 1044q8 28 32 44q16 10 34 9q8 -1 18 -3q28 -8 44 -31l90 -152q41 -70 88 -151l4 4q88 150 135 217l45 68q16 25 45 30.5t53.5 -10.5t29.5 -45t-11 -53l-45 -68q-45 -68 -131 -211q-20 -37 -43 -74q16 -31 34 -61q117 -203 154 -262l41 -62q10 -18 10 -36q0 -8 -2 -17 q-7 -28 -31 -44q-17 -12 -36 -12q-8 0 -16 2q-28 7 -44 30l-41 63q-39 61 -151 258q-31 -55 -64 -115l-104 -182q-12 -25 -41 -33t-54.5 6.5t-33.5 42t6 54.5l102 182q55 98 107 186q-70 123 -129 222l-88 151q-9 17 -9 35q0 8 2 18z" />
<glyph unicode="y" horiz-adv-x="786" d="M25 915q-5 12 -5 25q0 14 7 30q12 27 38.5 37.5t53 -2t39.5 -38.5l37 -97q37 -96 124 -286q72 -154 130 -242q76 315 122 496l21 94q32 110 83 110q22 0 48 -20q35 -25 41 -46q2 -9 2 -15q0 -10 -6 -15l-10 -8q-2 -12 -7 -31q-10 -66 -32 -202q-29 -176 -78 -349 q-4 -16 -14.5 -51t-13.5 -46t-11 -34.5t-14.5 -35t-15.5 -26t-19 -24.5q-55 -238 -76 -372q-23 -154 -25 -181v-12q2 -29 -19.5 -49.5t-50.5 -21.5h-2q-27 0 -46 19q-21 21 -23 50v14q0 18 27 201q20 139 76 377q-23 25 -54 65q-70 98 -159 295q-90 195 -130 295z" />
<glyph unicode="z" horiz-adv-x="940" d="M20 1012v6q0 24 18 44q20 22 48 25l49 5q49 2 297 13t334 11h31.5t39 -4t43 -14.5t29 -32t13.5 -49.5q0 -23 -6.5 -42.5t-25 -45t-29.5 -40t-45 -52t-48 -56.5q-135 -158 -272 -338q-139 -176 -197 -262q-8 -14 -10 -16q80 -8 217 -17q133 -6 204 -6h31q76 4 93 6h14 q29 0 50.5 -20.5t21.5 -49t-19.5 -50t-50.5 -21.5h-14q-12 -2 -86 -4q-22 -1 -52 -1q-75 0 -198 7q-172 8 -254 17h-10.5t-27 1t-34.5 5t-33.5 12t-27 21.5t-12.5 33t10 47.5q10 20 71 113q59 90 201 272q139 180 279 344q51 59 81 101q-92 -2 -305 -12q-246 -10 -293 -13 l-49 -4q-29 -2 -51.5 18t-24.5 48z" />
<glyph unicode="&#xad;" d="M20.5 539.5q-2.5 29.5 17 52t48.5 24.5l41 5q45 2 143 6q94 4 209 10q119 8 152 8l33 2q29 0 50 -19.5t22 -48t-18.5 -51t-47.5 -22.5l-35 -2q-31 0 -146 -8q-119 -6 -215 -11q-94 -2 -135 -6l-43 -4q-29 -2 -51 16.5t-24.5 48z" />
<glyph unicode="&#x2000;" horiz-adv-x="881" />
<glyph unicode="&#x2001;" horiz-adv-x="1762" />
<glyph unicode="&#x2002;" horiz-adv-x="881" />
<glyph unicode="&#x2003;" horiz-adv-x="1762" />
<glyph unicode="&#x2004;" horiz-adv-x="587" />
<glyph unicode="&#x2005;" horiz-adv-x="440" />
<glyph unicode="&#x2006;" horiz-adv-x="293" />
<glyph unicode="&#x2007;" horiz-adv-x="293" />
<glyph unicode="&#x2008;" horiz-adv-x="220" />
<glyph unicode="&#x2009;" horiz-adv-x="352" />
<glyph unicode="&#x200a;" horiz-adv-x="97" />
<glyph unicode="&#x2010;" d="M20.5 539.5q-2.5 29.5 17 52t48.5 24.5l41 5q45 2 143 6q94 4 209 10q119 8 152 8l33 2q29 0 50 -19.5t22 -48t-18.5 -51t-47.5 -22.5l-35 -2q-31 0 -146 -8q-119 -6 -215 -11q-94 -2 -135 -6l-43 -4q-29 -2 -51 16.5t-24.5 48z" />
<glyph unicode="&#x2011;" d="M20.5 539.5q-2.5 29.5 17 52t48.5 24.5l41 5q45 2 143 6q94 4 209 10q119 8 152 8l33 2q29 0 50 -19.5t22 -48t-18.5 -51t-47.5 -22.5l-35 -2q-31 0 -146 -8q-119 -6 -215 -11q-94 -2 -135 -6l-43 -4q-29 -2 -51 16.5t-24.5 48z" />
<glyph unicode="&#x2012;" d="M20.5 539.5q-2.5 29.5 17 52t48.5 24.5l41 5q45 2 143 6q94 4 209 10q119 8 152 8l33 2q29 0 50 -19.5t22 -48t-18.5 -51t-47.5 -22.5l-35 -2q-31 0 -146 -8q-119 -6 -215 -11q-94 -2 -135 -6l-43 -4q-29 -2 -51 16.5t-24.5 48z" />
<glyph unicode="&#x2013;" horiz-adv-x="1061" d="M20.5 539.5q-3.5 29.5 24.5 52t69 24.5l59 5q64 2 204 6q135 4 299 10q171 8 218 8l47 2q41 0 71 -19.5t31.5 -48t-26 -51t-67.5 -22.5l-51 -2q-44 0 -208 -8q-171 -6 -308 -11q-134 -2 -193 -6l-62 -4q-41 -2 -72.5 16.5t-35 48z" />
<glyph unicode="&#x2014;" horiz-adv-x="2085" d="M21 539.5q-7 29.5 48.5 52t138.5 24.5l118 5q128 2 409 6q269 4 598 10q340 8 434 8l95 2q83 0 143 -19.5t63 -48t-53 -51t-136 -22.5l-100 -2q-89 0 -418 -8q-340 -6 -615 -11q-269 -2 -386 -6l-123 -4q-83 -2 -146 16.5t-70 48z" />
<glyph unicode="&#x2018;" horiz-adv-x="200" d="M20 881l3 43q2 43 10 149q8 100 6 162l-2 61q0 31 20.5 51.5t49 21.5t50 -19.5t21.5 -49.5l2 -63q2 -66 -6 -174q-8 -106 -10 -148l-2 -43q-2 -29 -23.5 -48t-50.5 -17t-49.5 23.5t-18.5 50.5z" />
<glyph unicode="&#x2019;" horiz-adv-x="188" d="M20 1225q-2 29 18.5 50t49.5 22t50.5 -18t23.5 -48l2 -47q2 -47 2 -148q0 -98 2 -141v-43q2 -29 -18.5 -50.5t-49 -22.5t-50 19.5t-23.5 49.5v43q-2 45 -2 160q0 84 -2 127z" />
<glyph unicode="&#x201c;" horiz-adv-x="419" d="M20 1178q-2 94 5 196q2 14 3 38t1 33t2 24.5t6 25.5t8 23l8 14q12 27 41 36t54.5 -3.5t35 -40t-3.5 -54.5l-6 -12q-4 -23 -8 -92q-6 -98 -4 -186q2 -92 2 -123v-29q0 -31 -20.5 -51.5t-50.5 -20.5t-50 20.5t-20 51.5v29q0 29 -3 121zM244 1438l4 41q2 29 24.5 48t51 17 t48 -24.5t17.5 -51.5l-4 -41q-2 -37 4 -141q6 -111 8 -184l2 -72q2 -29 -18.5 -50.5t-49 -22.5t-50 18.5t-23.5 48.5l-2 74q-2 72 -8 180q-6 115 -4 160z" />
<glyph unicode="&#x201d;" horiz-adv-x="387" d="M20 1376q0 94 9 121l4 14q8 29 34.5 42.5t54.5 5t41 -34t5 -54.5l-2 -12q-4 -20 -4 -84q0 -84 4 -184l6 -105q2 -29 -17.5 -50t-48 -23t-51 17.5t-24.5 47.5l-4 105q-6 106 -7 194zM217 1272q-2 145 0 186l2 39q2 29 23.5 49.5t50.5 19.5t49 -22.5t18 -52.5l-2 -39 q-2 -39 0 -178t7 -189l2 -49q2 -31 -17.5 -52t-48.5 -23.5t-51.5 17t-22.5 48.5l-4 51q-4 51 -6 195z" />
<glyph unicode="&#x202f;" horiz-adv-x="352" />
<glyph unicode="&#x205f;" horiz-adv-x="440" />
<glyph unicode="&#x25fc;" horiz-adv-x="1095" d="M0 0v1096h1096v-1096h-1096z" />
</font>
</defs>
</svg>
